<svg xmlns="http://www.w3.org/2000/svg" viewBox="0 0 1600 1000" role="img" aria-label="QR attendance classroom background">
  <defs>
    <linearGradient id="bg" x1="0" y1="0" x2="1" y2="1">
      <stop offset="0" stop-color="#082f49"/>
      <stop offset="0.52" stop-color="#0f766e"/>
      <stop offset="1" stop-color="#111827"/>
    </linearGradient>
    <linearGradient id="desk" x1="0" y1="0" x2="1" y2="0">
      <stop offset="0" stop-color="#ecfeff" stop-opacity="0.22"/>
      <stop offset="1" stop-color="#d1fae5" stop-opacity="0.08"/>
    </linearGradient>
    <pattern id="grid" width="80" height="80" patternUnits="userSpaceOnUse">
      <path d="M80 0H0v80" fill="none" stroke="#ffffff" stroke-opacity="0.06" stroke-width="1"/>
    </pattern>
    <filter id="soft" x="-30%" y="-30%" width="160%" height="160%">
      <feGaussianBlur stdDeviation="18"/>
    </filter>
  </defs>
  <rect width="1600" height="1000" fill="url(#bg)"/>
  <rect width="1600" height="1000" fill="url(#grid)"/>
  <circle cx="1290" cy="130" r="190" fill="#a7f3d0" opacity="0.2" filter="url(#soft)"/>
  <circle cx="210" cy="805" r="260" fill="#38bdf8" opacity="0.16" filter="url(#soft)"/>
  <path d="M0 720c230-98 439-105 628-20 173 78 356 75 548-9 152-66 293-82 424-49v358H0z" fill="#031826" opacity="0.48"/>
  <path d="M135 660h1330v126H135z" rx="16" fill="url(#desk)"/>
  <path d="M235 709h1130" stroke="#ffffff" stroke-opacity="0.18" stroke-width="3" stroke-linecap="round"/>
  <g transform="translate(1070 248)" opacity="0.9">
    <rect width="260" height="260" rx="22" fill="#f8fafc"/>
    <rect x="28" y="28" width="66" height="66" rx="6" fill="#0f172a"/>
    <rect x="48" y="48" width="26" height="26" rx="3" fill="#f8fafc"/>
    <rect x="166" y="28" width="66" height="66" rx="6" fill="#0f172a"/>
    <rect x="186" y="48" width="26" height="26" rx="3" fill="#f8fafc"/>
    <rect x="28" y="166" width="66" height="66" rx="6" fill="#0f172a"/>
    <rect x="48" y="186" width="26" height="26" rx="3" fill="#f8fafc"/>
    <rect x="120" y="118" width="28" height="28" fill="#0f172a"/>
    <rect x="164" y="118" width="28" height="28" fill="#0f172a"/>
    <rect x="208" y="118" width="24" height="52" fill="#0f172a"/>
    <rect x="118" y="166" width="52" height="24" fill="#0f172a"/>
    <rect x="190" y="190" width="42" height="42" fill="#0f172a"/>
    <rect x="118" y="214" width="28" height="18" fill="#0f172a"/>
  </g>
  <g transform="translate(250 270)" fill="none" stroke="#ffffff" stroke-opacity="0.55" stroke-width="10" stroke-linecap="round" stroke-linejoin="round">
    <path d="M0 220V42c0-23 19-42 42-42h460c23 0 42 19 42 42v178"/>
    <path d="M82 80h170M82 132h310M82 184h230"/>
    <path d="M398 92l46 46 88-92"/>
  </g>
</svg>
